<svg width="198" height="49" viewBox="0 0 198 49" fill="none" xmlns="http://www.w3.org/2000/svg">
<path d="M196.079 30.6761H194.343C193.283 30.6761 192.423 31.5361 192.423 32.5969V34.3326C192.423 35.3935 193.283 36.2535 194.343 36.2535H196.079C197.14 36.2535 198 35.3935 198 34.3326V32.5969C198 31.5361 197.14 30.6761 196.079 30.6761Z" fill="white"/>
<path d="M73.1141 12.7668C74.9683 12.7668 76.5883 13.0792 77.9351 13.7234C79.2818 14.3675 80.3163 15.2655 81.0384 16.4173C81.7606 17.569 82.1119 18.916 82.1119 20.4581C82.1119 22.0003 81.7606 23.3473 81.0384 24.499C80.3163 25.6508 79.2818 26.5487 77.9351 27.1929C76.5883 27.8371 74.9879 28.1495 73.1141 28.1495H63.16V23.5034H72.8214C73.9144 23.5034 74.7732 23.2301 75.3977 22.7031C76.0223 22.176 76.3346 21.4147 76.3346 20.4777C76.3346 19.5406 76.0223 18.7793 75.3977 18.2523C74.7732 17.7252 73.9144 17.4519 72.8214 17.4519H63.687L66.2634 14.7775V35.587H60.5251V12.7668H73.1337H73.1141Z" fill="white"/>
<path d="M94.0569 36.036C91.988 36.036 90.1533 35.6456 88.5138 34.8843C86.8743 34.1229 85.6056 33.0493 84.6688 31.6633C83.7319 30.2968 83.2635 28.6765 83.2635 26.8416C83.2635 25.0066 83.7124 23.4644 84.5907 22.0979C85.4885 20.751 86.7182 19.6773 88.2796 18.916C89.841 18.1546 91.6172 17.7642 93.608 17.7642C95.5988 17.7642 97.3749 18.2132 98.8388 19.0917C100.303 19.9896 101.415 21.239 102.215 22.8592C103.016 24.4795 103.406 26.3926 103.406 28.5789H87.7916V25.0261H100.303L98.2728 26.295C98.2142 25.3384 97.98 24.5381 97.5896 23.8743C97.1993 23.2106 96.6723 22.7031 96.0282 22.3517C95.3841 22.0003 94.6034 21.8246 93.7251 21.8246C92.7492 21.8246 91.9099 22.0198 91.2073 22.4103C90.5046 22.8007 89.9386 23.3277 89.5483 24.011C89.1579 24.6942 88.9627 25.4946 88.9627 26.4121C88.9627 27.5638 89.2165 28.5399 89.7434 29.3598C90.2509 30.1797 91.0121 30.7848 91.988 31.2143C92.9639 31.6437 94.174 31.8585 95.5793 31.8585C96.8675 31.8585 98.1752 31.6828 99.4634 31.3314C100.752 30.98 101.923 30.4725 102.957 29.8283V33.4983C101.786 34.3181 100.439 34.9428 98.9364 35.3723C97.4335 35.8213 95.794 36.036 94.0569 36.036Z" fill="white"/>
<path d="M103.386 35.548L111.486 25.7874V27.6419L103.855 18.2327H110.14L115.292 24.4795H113.497L118.669 18.2327H124.837L117.01 27.7395L116.737 25.2994L125.325 35.5285H118.923L113.341 28.8132H115.214L109.691 35.5285H103.367L103.386 35.548Z" fill="white"/>
<path d="M135.611 36.036C133.425 36.036 131.512 35.6456 129.872 34.8843C128.233 34.1229 126.964 33.0493 126.047 31.6633C125.129 30.2968 124.681 28.6961 124.681 26.9001C124.681 25.1042 125.129 23.4839 126.047 22.1174C126.964 20.751 128.233 19.6773 129.892 18.916C131.551 18.1546 133.444 17.7642 135.611 17.7642C137.777 17.7642 139.709 18.1546 141.368 18.916C143.008 19.6773 144.296 20.751 145.213 22.1174C146.131 23.4839 146.58 25.0847 146.58 26.9001C146.58 28.7156 146.131 30.3163 145.213 31.6828C144.296 33.0493 143.027 34.1229 141.368 34.8843C139.709 35.6456 137.797 36.036 135.611 36.036ZM135.611 31.7804C136.723 31.7804 137.679 31.5852 138.46 31.1948C139.241 30.8043 139.826 30.2382 140.256 29.5159C140.666 28.7937 140.88 27.9152 140.88 26.9001C140.88 25.885 140.666 25.0261 140.256 24.2843C139.846 23.562 139.241 22.9959 138.46 22.6055C137.679 22.215 136.743 22.0198 135.611 22.0198C134.479 22.0198 133.6 22.215 132.82 22.6055C132.039 22.9959 131.414 23.562 131.004 24.2843C130.575 25.0066 130.36 25.885 130.36 26.9001C130.36 27.9152 130.575 28.7741 131.004 29.5159C131.434 30.2382 132.039 30.8043 132.82 31.1948C133.6 31.5852 134.537 31.7804 135.611 31.7804Z" fill="white"/>
<path d="M148.453 18.2327H154.172L155.207 24.46V35.548H149.566V24.011L148.473 18.2327H148.453ZM163.463 17.9985V22.8592C162.916 22.7421 162.37 22.6445 161.843 22.5859C161.296 22.5274 160.808 22.4883 160.379 22.4883C159.403 22.4883 158.525 22.6835 157.744 23.074C156.963 23.4644 156.339 24.0891 155.89 24.948C155.441 25.8069 155.207 26.9001 155.207 28.2666L154.075 26.8611C154.211 25.6312 154.445 24.46 154.777 23.3668C155.109 22.2736 155.538 21.2975 156.104 20.4581C156.67 19.6187 157.373 18.955 158.212 18.467C159.052 17.979 160.067 17.7447 161.257 17.7447C161.608 17.7447 161.96 17.7447 162.35 17.8033C162.74 17.8423 163.092 17.9009 163.443 17.979L163.463 17.9985Z" fill="white"/>
<path d="M182.395 26.9001C182.102 28.7351 181.517 30.3554 180.658 31.7218C179.799 33.0883 178.745 34.162 177.437 34.9038C176.149 35.6651 174.685 36.036 173.065 36.036C171.367 36.036 169.864 35.6456 168.596 34.8843C167.308 34.1229 166.293 33.0493 165.571 31.6828C164.848 30.3163 164.478 28.7156 164.478 26.9001C164.478 25.0847 164.848 23.4839 165.571 22.1174C166.293 20.751 167.308 19.6773 168.596 18.916C169.884 18.1546 171.367 17.7642 173.065 17.7642C174.763 17.7642 176.149 18.1351 177.437 18.8965C178.726 19.6578 179.819 20.7119 180.677 22.0784C181.536 23.4254 182.102 25.0456 182.395 26.9001ZM170.177 26.9001C170.177 27.8371 170.372 28.657 170.762 29.3793C171.153 30.1016 171.68 30.6677 172.363 31.0776C173.046 31.4876 173.827 31.7023 174.724 31.7023C175.622 31.7023 176.462 31.4876 177.262 31.0776C178.062 30.6677 178.765 30.1016 179.37 29.3793C179.975 28.657 180.443 27.8371 180.736 26.9001C180.443 25.9631 179.975 25.1432 179.37 24.4209C178.765 23.6987 178.062 23.1325 177.262 22.7226C176.462 22.3127 175.622 22.0979 174.724 22.0979C173.827 22.0979 173.046 22.3127 172.363 22.7226C171.68 23.1325 171.153 23.6987 170.762 24.4209C170.372 25.1432 170.177 25.9631 170.177 26.9001ZM180.99 35.548L180.229 29.2622L181.048 26.9001L180.229 24.5576L180.99 18.2327H186.865L185.791 26.8806L186.865 35.5285H180.99V35.548Z" fill="white"/>
<path d="M31.9899 0H16.8049C7.52382 0 0 7.52506 0 16.8077V31.9951C0 41.2778 7.52382 48.8028 16.8049 48.8028H31.9899C41.271 48.8028 48.7948 41.2778 48.7948 31.9951V16.8077C48.7948 7.52506 41.271 0 31.9899 0Z" fill="#DFFF00"/>
<path d="M38.6064 25.1823C32.3802 26.822 28.8475 30.3358 27.6959 35.6261C26.4663 33.5959 25.4514 31.0581 23.6752 29.2426C21.8796 27.4272 19.3423 26.334 17.1953 24.9675C22.4651 23.6401 26.0369 20.0677 27.4617 13.86C28.867 19.9896 32.3802 23.5815 38.626 25.2018L38.6064 25.1823Z" fill="black"/>
<path d="M20.9037 33.6739C17.8003 34.4938 16.0242 36.2507 15.4387 38.8861C14.8336 37.871 14.3066 36.6021 13.4283 35.6846C12.5305 34.7671 11.2618 34.2205 10.1884 33.5373C12.8233 32.8736 14.6189 31.0776 15.3216 27.9738C16.0242 31.0386 17.7808 32.8345 20.9037 33.6349V33.6739Z" fill="black"/>
<path d="M20.9037 15.5779C17.8003 16.3977 16.0242 18.1546 15.4387 20.79C14.8336 19.7749 14.3066 18.506 13.4283 17.5885C12.5305 16.671 11.2618 16.1245 10.1884 15.4412C12.8233 14.7775 14.6189 12.9815 15.3216 9.87769C16.0242 12.9425 17.7808 14.7385 20.9037 15.5388V15.5779Z" fill="black"/>
</svg>
