<svg width="50" height="50" xmlns="http://www.w3.org/2000/svg" viewBox="0 0 49.99 50"><path d="M32.77,0h-15.56C7.71,0,0,7.71,0,17.22v15.56c0,9.51,7.71,17.22,17.22,17.22h15.56c9.51,0,17.22-7.71,17.22-17.22v-15.56C49.99,7.71,42.28,0,32.77,0Z" fill="#dbe120" stroke-width="0"/><path d="M39.2,25.8c-6.23,1.64-9.76,5.15-10.91,10.44-1.23-2.03-2.24-4.57-4.02-6.38-1.8-1.82-4.33-2.91-6.48-4.28,5.27-1.33,8.84-4.9,10.27-11.11,1.41,6.13,4.92,9.72,11.16,11.34l-.02-.02Z" fill="#010101" stroke-width="0"/><path d="M21.49,34.29c-3.1.82-4.88,2.58-5.47,5.21-.61-1.02-1.13-2.28-2.01-3.2-.9-.92-2.17-1.46-3.24-2.15,2.63-.66,4.43-2.46,5.13-5.56.7,3.06,2.46,4.86,5.58,5.66v.04Z" fill="#010101" stroke-width="0"/><path d="M21.49,16.2c-3.1.82-4.88,2.58-5.47,5.21-.61-1.02-1.13-2.28-2.01-3.2-.9-.92-2.17-1.46-3.24-2.15,2.63-.66,4.43-2.46,5.13-5.56.7,3.06,2.46,4.86,5.58,5.66v.04Z" fill="#010101" stroke-width="0"/></svg>